<?xml version="1.0" encoding="utf-8"?>
<svg width="157" height="34" viewBox="0 0 157 34" fill="none" xmlns="http://www.w3.org/2000/svg">
<path d="M31.3579 8.02064C29.3939 8.02064 27.7075 6.34091 27.6877 4.35701C27.6678 2.3665 29.4336 0.574423 31.3844 0.600875C33.3154 0.627327 34.9355 2.31361 34.9355 4.2909C34.9355 6.34754 33.3352 8.01403 31.3579 8.02064Z" fill="#CBFF02"/>
<path d="M13.8741 32.7653L6.71213 22.8722V32.7653H0V1.43286H6.71213V20.1874L13.4243 10.3869H21.2541L13.1068 21.5761L21.479 32.7653H13.8674H13.8741Z" fill="#CBFF02"/>
<path d="M59.4165 19.0297V32.7715H52.7044V20.015C52.7044 17.2376 50.9585 15.9414 48.8092 15.9414C46.3492 15.9414 44.6498 17.3764 44.6498 20.5507V32.7715H37.9375V10.3931H44.6498V12.4961C45.86 10.8428 48.0951 9.76489 51.0511 9.76489C55.5744 9.76489 59.4231 12.9854 59.4231 19.0297H59.4165Z" fill="#CBFF02"/>
<path d="M86.9862 1.43872V32.7711H80.2739V30.6682C78.7992 32.3678 76.6037 33.3994 73.608 33.3994C67.7423 33.3994 62.9082 28.2545 62.9082 21.582C62.9082 14.9161 67.7423 9.76454 73.608 9.76454C76.6037 9.76454 78.7992 10.7962 80.2739 12.4957V1.43872H86.9862ZM80.2739 21.582C80.2739 18.2226 78.0387 16.1196 74.9504 16.1196C71.8622 16.1196 69.6271 18.2226 69.6271 21.582C69.6271 24.9414 71.8622 27.0443 74.9504 27.0443C78.0387 27.0443 80.2739 24.9414 80.2739 21.582Z" fill="#CBFF02"/>
<path d="M105.338 9.94263V17.5542C102.561 17.1045 98.6262 18.2288 98.6262 22.6595V32.7773H91.9141V10.399H98.6262V14.38C99.5189 11.3843 102.521 9.94925 105.338 9.94925V9.94263Z" fill="#CBFF02"/>
<path d="M119.167 27.3958C120.999 27.3958 122.566 26.6817 123.466 25.6963L128.835 28.7846C126.64 31.8266 123.333 33.3939 119.081 33.3939C111.43 33.3939 106.682 28.249 106.682 21.5765C106.682 14.9039 111.516 9.75903 118.585 9.75903C125.119 9.75903 129.953 14.818 129.953 21.5765C129.953 22.5155 129.86 23.4082 129.682 24.2613H113.791C114.644 26.5891 116.7 27.3958 119.16 27.3958H119.167ZM123.287 19.2487C122.573 16.6498 120.556 15.7107 118.545 15.7107C115.993 15.7107 114.293 16.9672 113.665 19.2487H123.287Z" fill="#CBFF02"/>
<path d="M156.49 1.43872V32.7711H149.778V30.6682C148.303 32.3678 146.108 33.3994 143.112 33.3994C137.246 33.3994 132.412 28.2545 132.412 21.582C132.412 14.9095 137.246 9.76454 143.112 9.76454C146.108 9.76454 148.303 10.7962 149.778 12.4957V1.43872H156.49ZM149.778 21.582C149.778 18.2226 147.543 16.1196 144.454 16.1196C141.366 16.1196 139.131 18.2226 139.131 21.582C139.131 24.9414 141.366 27.0443 144.454 27.0443C147.543 27.0443 149.778 24.9414 149.778 21.582Z" fill="#CBFF02"/>
<path d="M23.1655 25.8961L25.5196 17.6233C26.4521 14.4226 26.2735 11.6649 26.1876 10.5077L26.2339 10.3291H34.725L30.1885 26.4715C29.342 29.6259 32.2319 28.1181 34.6787 25.2282L35.1681 25.4067C33.4751 29.8109 30.2745 33.2299 26.4522 33.2299C22.7158 33.2299 21.962 30.1152 23.1589 25.8961H23.1655Z" fill="#CBFF02"/>
</svg>
